# xmcd
#
# Track frame offsets:
#	150
#	25083
#	57571
#	84843
#	110726
#	129463
#	162535
#	188089
#	210523
#	234030
#	260735
#	284994
#
# Disc length: 3879 seconds
#
# Revision: 0
# Processed by: cddbd v1.5.2PL0 Copyright (c) Steve Scherf et al.
# Submitted via: EasyCDDAExtractor 15.2.5.1
#
DISCID=ac0f250c
DTITLE=Paul Hardcastle - The Chill Lounge 3
DYEAR=1900
DGENRE=
TTITLE0=Desire
TTITLE1=Unlimited Love
TTITLE2=Don't You Know
TTITLE3=Exploring the Deep
TTITLE4=Better Now
TTITLE5=Where I Wanna Be
TTITLE6=Peace on Earth
TTITLE7=Neon Adventure
TTITLE8=On the Run
TTITLE9=Fireflies
TTITLE10=Guess I'll Never Know
TTITLE11=Fade Away
EXTD=
EXTT0=
EXTT1=
EXTT2=
EXTT3=
EXTT4=
EXTT5=
EXTT6=
EXTT7=
EXTT8=
EXTT9=
EXTT10=
EXTT11=
PLAYORDER=
